<svg width="20" height="24" viewBox="0 0 20 24" fill="none" xmlns="http://www.w3.org/2000/svg">
<path d="M19.4876 18.5327C19.1311 19.3564 18.7091 20.1145 18.2202 20.8116C17.5537 21.7618 17.008 22.4196 16.5874 22.7848C15.9355 23.3844 15.237 23.6914 14.489 23.7089C13.9521 23.7089 13.3045 23.5561 12.5507 23.2461C11.7944 22.9376 11.0994 22.7848 10.4639 22.7848C9.79745 22.7848 9.08266 22.9376 8.3181 23.2461C7.55237 23.5561 6.93551 23.7176 6.46388 23.7336C5.74661 23.7642 5.03167 23.4484 4.31803 22.7848C3.86256 22.3875 3.29285 21.7065 2.61035 20.7417C1.8781 19.7114 1.27608 18.5167 0.804449 17.1546C0.299348 15.6834 0.0461426 14.2588 0.0461426 12.8795C0.0461426 11.2996 0.387533 9.93698 1.07133 8.79509C1.60874 7.87787 2.32368 7.15435 3.21848 6.6232C4.11329 6.09205 5.08012 5.82138 6.12132 5.80407C6.69103 5.80407 7.43814 5.98029 8.36655 6.32663C9.29235 6.67413 9.8868 6.85036 10.1474 6.85036C10.3423 6.85036 11.0027 6.6443 12.1221 6.2335C13.1808 5.85252 14.0743 5.69478 14.8063 5.75692C16.7897 5.91699 18.2798 6.69887 19.2708 8.1075C17.4969 9.18232 16.6194 10.6877 16.6369 12.6189C16.6529 14.1232 17.1986 15.3749 18.2711 16.3688C18.7571 16.8301 19.2999 17.1867 19.9038 17.4399C19.7729 17.8197 19.6346 18.1835 19.4876 18.5327V18.5327ZM14.9387 0.632278C14.9387 1.8113 14.5079 2.91214 13.6494 3.93107C12.6133 5.14238 11.3601 5.84234 10.001 5.73189C9.98372 5.59044 9.97368 5.44157 9.97368 5.28514C9.97368 4.15328 10.4664 2.94197 11.3414 1.95156C11.7783 1.4501 12.3339 1.03314 13.0076 0.700527C13.6799 0.372873 14.3159 0.191674 14.9139 0.160645C14.9314 0.318261 14.9387 0.475887 14.9387 0.632263V0.632278Z" fill="black"/>
</svg>
