<svg width="24" height="25" viewBox="0 0 24 25" fill="none" xmlns="http://www.w3.org/2000/svg">
<path fill-rule="evenodd" clip-rule="evenodd" d="M23.3161 12.716C23.3161 11.8802 23.241 11.0765 23.1017 10.3049H12.0001V14.8646H18.3439C18.0706 16.338 17.2401 17.5864 15.9917 18.4222V21.3798H19.8012C22.0302 19.3277 23.3161 16.3058 23.3161 12.716Z" fill="#4285F4"/>
<path fill-rule="evenodd" clip-rule="evenodd" d="M11.9999 24.2354C15.1826 24.2354 17.8508 23.1799 19.8011 21.3796L15.9916 18.422C14.9361 19.1292 13.5859 19.5472 11.9999 19.5472C8.92982 19.5472 6.33121 17.4736 5.40428 14.6875H1.46619V17.7415C3.40577 21.5939 7.39208 24.2354 11.9999 24.2354Z" fill="#34A853"/>
<path fill-rule="evenodd" clip-rule="evenodd" d="M5.40438 14.6876C5.16863 13.9803 5.03468 13.2249 5.03468 12.448C5.03468 11.6711 5.16863 10.9156 5.40438 10.2083V7.1543H1.46629C0.66795 8.74561 0.212524 10.5459 0.212524 12.448C0.212524 14.35 0.66795 16.1503 1.46629 17.7416L5.40438 14.6876Z" fill="#FBBC05"/>
<path fill-rule="evenodd" clip-rule="evenodd" d="M11.9999 5.34885C13.7305 5.34885 15.2844 5.94359 16.506 7.11162L19.8868 3.73075C17.8455 1.82868 15.1772 0.660645 11.9999 0.660645C7.39208 0.660645 3.40577 3.30212 1.46619 7.15449L5.40428 10.2085C6.33121 7.42238 8.92982 5.34885 11.9999 5.34885Z" fill="#EA4335"/>
</svg>
