<svg width="21" height="14" viewBox="0 0 21 14" fill="none" xmlns="http://www.w3.org/2000/svg">
<path d="M1.92526 9.17122C2.81247 4.74693 6.52131 1.60332 10.6933 1.60332C14.8639 1.60332 18.5728 4.74693 19.4613 9.17122C19.4965 9.34678 19.5974 9.50063 19.7418 9.59893C19.8862 9.69723 20.0624 9.73192 20.2314 9.69538C20.4005 9.65883 20.5486 9.55404 20.6433 9.40406C20.7379 9.25408 20.7714 9.07119 20.7362 8.89563C19.7254 3.86342 15.4975 0.252396 10.6933 0.252396C5.88908 0.252396 1.66118 3.86342 0.650386 8.89563C0.615194 9.07119 0.648602 9.25408 0.74326 9.40406C0.837918 9.55404 0.986073 9.65883 1.15513 9.69538C1.32419 9.73192 1.50031 9.69723 1.64473 9.59893C1.78916 9.50063 1.89007 9.34678 1.92526 9.17122ZM10.6803 4.30518C11.8878 4.30518 13.0459 4.80333 13.8998 5.69005C14.7537 6.57677 15.2334 7.77941 15.2334 9.03342C15.2334 10.2874 14.7537 11.4901 13.8998 12.3768C13.0459 13.2635 11.8878 13.7617 10.6803 13.7617C9.4727 13.7617 8.3146 13.2635 7.46072 12.3768C6.60685 11.4901 6.12714 10.2874 6.12714 9.03342C6.12714 7.77941 6.60685 6.57677 7.46072 5.69005C8.3146 4.80333 9.4727 4.30518 10.6803 4.30518Z" fill="#949BA5"/>
</svg>
