<svg width="29" height="25" viewBox="0 0 29 25" fill="none" xmlns="http://www.w3.org/2000/svg">
<path d="M9.12074 24.2356C20.0636 24.2356 26.0479 15.1666 26.0479 7.30219C26.0479 7.04464 26.0426 6.78826 26.031 6.53294C27.1954 5.69009 28.2004 4.6465 28.9987 3.4511C27.9326 3.92519 26.7855 4.24428 25.5822 4.38815C26.8105 3.65137 27.7534 2.48576 28.1983 1.09637C27.0305 1.78941 25.7529 2.27797 24.4206 2.54099C23.3349 1.38416 21.7894 0.660645 20.0779 0.660645C16.7925 0.660645 14.1283 3.32592 14.1283 6.61127C14.1283 7.07835 14.1806 7.53252 14.2827 7.9683C9.3381 7.71941 4.95363 5.35119 2.01931 1.75016C1.49081 2.65841 1.21282 3.69065 1.21375 4.74148C1.21375 6.80629 2.26401 8.62905 3.86122 9.69547C2.91645 9.6666 1.99243 9.41132 1.16683 8.95109C1.16595 8.97608 1.16595 9.00042 1.16595 9.02712C1.16595 11.9093 3.21662 14.3158 5.93883 14.8611C5.42756 15.0004 4.89999 15.0708 4.37009 15.0705C3.98741 15.0705 3.61445 15.0328 3.25198 14.9632C4.00939 17.3279 6.20564 19.0487 8.80955 19.0968C6.77332 20.6934 4.2083 21.6443 1.4205 21.6443C0.94626 21.6447 0.472407 21.6172 0.00140381 21.5619C2.63438 23.2501 5.76078 24.2352 9.12104 24.2352" fill="#1D9BF0"/>
</svg>
